<?xml version="1.0" encoding="UTF-8" standalone="no"?>
<!DOCTYPE svg PUBLIC "-//W3C//DTD SVG 1.1//EN"
 "http://www.w3.org/Graphics/SVG/1.1/DTD/svg11.dtd">
<!-- Generated by graphviz version 2.43.0 (0)
 -->
<!-- Title: G Pages: 1 -->
<svg width="770pt" height="1076pt"
 viewBox="0.00 0.00 770.00 1076.00" xmlns="http://www.w3.org/2000/svg" xmlns:xlink="http://www.w3.org/1999/xlink">
<g id="graph0" class="graph" transform="scale(1 1) rotate(0) translate(4 1072)">
<title>G</title>
<polygon fill="white" stroke="transparent" points="-4,4 -4,-1072 766,-1072 766,4 -4,4"/>
<!-- grouptypes -->
<g id="node1" class="node">
<title>grouptypes</title>
<text text-anchor="start" x="384.5" y="-893.4" font-family="Bitstream-Vera Sans" font-size="7.00">grouptypes</text>
<polygon fill="none" stroke="black" points="371,-887 371,-889 440,-889 440,-887 371,-887"/>
<text text-anchor="start" x="373" y="-879.4" font-family="Bitstream-Vera Sans" font-size="7.00">&#45; id : VARCHAR</text>
<text text-anchor="start" x="373" y="-867.4" font-family="Bitstream-Vera Sans" font-size="7.00">&#45; name : VARCHAR</text>
<polygon fill="none" stroke="black" points="369.5,-862 369.5,-902 440.5,-902 440.5,-862 369.5,-862"/>
</g>
<!-- groups -->
<g id="node2" class="node">
<title>groups</title>
<text text-anchor="start" x="227" y="-929.4" font-family="Bitstream-Vera Sans" font-size="7.00">groups</text>
<polygon fill="none" stroke="black" points="191,-923 191,-925 288,-925 288,-923 191,-923"/>
<text text-anchor="start" x="193" y="-915.4" font-family="Bitstream-Vera Sans" font-size="7.00">&#45; id : VARCHAR</text>
<text text-anchor="start" x="193" y="-903.4" font-family="Bitstream-Vera Sans" font-size="7.00">&#45; name : VARCHAR</text>
<text text-anchor="start" x="193" y="-891.4" font-family="Bitstream-Vera Sans" font-size="7.00">&#45; abbreviation : VARCHAR</text>
<text text-anchor="start" x="193" y="-879.4" font-family="Bitstream-Vera Sans" font-size="7.00">&#45; lastchange : TIMESTAMP</text>
<text text-anchor="start" x="193" y="-867.4" font-family="Bitstream-Vera Sans" font-size="7.00">&#45; entryYearId : BIGINT</text>
<text text-anchor="start" x="193" y="-855.4" font-family="Bitstream-Vera Sans" font-size="7.00">&#45; externalId : VARCHAR</text>
<text text-anchor="start" x="193" y="-843.4" font-family="Bitstream-Vera Sans" font-size="7.00">&#45; UIC : VARCHAR</text>
<text text-anchor="start" x="193" y="-831.4" font-family="Bitstream-Vera Sans" font-size="7.00">&#45; grouptype_id : VARCHAR</text>
<polygon fill="none" stroke="black" points="189.5,-826 189.5,-938 288.5,-938 288.5,-826 189.5,-826"/>
</g>
<!-- groups&#45;&gt;grouptypes -->
<g id="edge1" class="edge">
<title>groups&#45;&gt;grouptypes</title>
<path fill="none" stroke="black" d="M296.9,-882C315.27,-882 335.5,-882 353.39,-882"/>
<ellipse fill="none" stroke="black" cx="357.43" cy="-882" rx="4" ry="4"/>
<text text-anchor="middle" x="353.43" y="-884.4" font-family="Bitstream-Vera Sans" font-size="7.00">+ id</text>
<text text-anchor="middle" x="325.4" y="-876.4" font-family="Bitstream-Vera Sans" font-size="7.00">+ grouptype_id</text>
</g>
<!-- areals -->
<g id="node3" class="node">
<title>areals</title>
<text text-anchor="start" x="543.5" y="-309.4" font-family="Bitstream-Vera Sans" font-size="7.00">areals</text>
<polygon fill="none" stroke="black" points="507,-303 507,-305 603,-305 603,-303 507,-303"/>
<text text-anchor="start" x="509" y="-295.4" font-family="Bitstream-Vera Sans" font-size="7.00">&#45; id : VARCHAR</text>
<text text-anchor="start" x="509" y="-283.4" font-family="Bitstream-Vera Sans" font-size="7.00">&#45; name : VARCHAR</text>
<text text-anchor="start" x="509" y="-271.4" font-family="Bitstream-Vera Sans" font-size="7.00">&#45; externalId : VARCHAR</text>
<text text-anchor="start" x="509" y="-259.4" font-family="Bitstream-Vera Sans" font-size="7.00">&#45; lastchange : TIMESTAMP</text>
<polygon fill="none" stroke="black" points="506,-254 506,-318 604,-318 604,-254 506,-254"/>
</g>
<!-- buildings -->
<g id="node4" class="node">
<title>buildings</title>
<text text-anchor="start" x="388" y="-315.4" font-family="Bitstream-Vera Sans" font-size="7.00">buildings</text>
<polygon fill="none" stroke="black" points="357,-309 357,-311 453,-311 453,-309 357,-309"/>
<text text-anchor="start" x="359" y="-301.4" font-family="Bitstream-Vera Sans" font-size="7.00">&#45; id : VARCHAR</text>
<text text-anchor="start" x="359" y="-289.4" font-family="Bitstream-Vera Sans" font-size="7.00">&#45; name : VARCHAR</text>
<text text-anchor="start" x="359" y="-277.4" font-family="Bitstream-Vera Sans" font-size="7.00">&#45; lastchange : TIMESTAMP</text>
<text text-anchor="start" x="359" y="-265.4" font-family="Bitstream-Vera Sans" font-size="7.00">&#45; externalId : VARCHAR</text>
<text text-anchor="start" x="359" y="-253.4" font-family="Bitstream-Vera Sans" font-size="7.00">&#45; areal_id : VARCHAR</text>
<polygon fill="none" stroke="black" points="356,-248 356,-324 454,-324 454,-248 356,-248"/>
</g>
<!-- buildings&#45;&gt;areals -->
<g id="edge2" class="edge">
<title>buildings&#45;&gt;areals</title>
<path fill="none" stroke="black" d="M462.37,-286C471.26,-286 480.5,-286 489.54,-286"/>
<ellipse fill="none" stroke="black" cx="493.78" cy="-286" rx="4" ry="4"/>
<text text-anchor="middle" x="489.78" y="-288.4" font-family="Bitstream-Vera Sans" font-size="7.00">+ id</text>
<text text-anchor="middle" x="481.37" y="-280.4" font-family="Bitstream-Vera Sans" font-size="7.00">+ areal_id</text>
</g>
<!-- users -->
<g id="node5" class="node">
<title>users</title>
<text text-anchor="start" x="229" y="-453.4" font-family="Bitstream-Vera Sans" font-size="7.00">users</text>
<polygon fill="none" stroke="black" points="191,-447 191,-449 287,-449 287,-447 191,-447"/>
<text text-anchor="start" x="193" y="-439.4" font-family="Bitstream-Vera Sans" font-size="7.00">&#45; id : VARCHAR</text>
<text text-anchor="start" x="193" y="-427.4" font-family="Bitstream-Vera Sans" font-size="7.00">&#45; name : VARCHAR</text>
<text text-anchor="start" x="193" y="-415.4" font-family="Bitstream-Vera Sans" font-size="7.00">&#45; surname : VARCHAR</text>
<text text-anchor="start" x="193" y="-403.4" font-family="Bitstream-Vera Sans" font-size="7.00">&#45; email : VARCHAR</text>
<text text-anchor="start" x="193" y="-391.4" font-family="Bitstream-Vera Sans" font-size="7.00">&#45; lastchange : TIMESTAMP</text>
<text text-anchor="start" x="193" y="-379.4" font-family="Bitstream-Vera Sans" font-size="7.00">&#45; externalId : BIGINT</text>
<text text-anchor="start" x="193" y="-367.4" font-family="Bitstream-Vera Sans" font-size="7.00">&#45; UCO : VARCHAR</text>
<text text-anchor="start" x="193" y="-355.4" font-family="Bitstream-Vera Sans" font-size="7.00">&#45; VaVId : VARCHAR</text>
<polygon fill="none" stroke="black" points="190,-350 190,-462 288,-462 288,-350 190,-350"/>
</g>
<!-- events_users -->
<g id="node6" class="node">
<title>events_users</title>
<text text-anchor="start" x="40.5" y="-395.4" font-family="Bitstream-Vera Sans" font-size="7.00">events_users</text>
<polygon fill="none" stroke="black" points="25,-389 25,-391 105,-391 105,-389 25,-389"/>
<text text-anchor="start" x="27" y="-381.4" font-family="Bitstream-Vera Sans" font-size="7.00">&#45; id : VARCHAR</text>
<text text-anchor="start" x="27" y="-369.4" font-family="Bitstream-Vera Sans" font-size="7.00">&#45; user_id : VARCHAR</text>
<text text-anchor="start" x="27" y="-357.4" font-family="Bitstream-Vera Sans" font-size="7.00">&#45; event_id : VARCHAR</text>
<polygon fill="none" stroke="black" points="24,-352 24,-404 106,-404 106,-352 24,-352"/>
</g>
<!-- events_users&#45;&gt;users -->
<g id="edge3" class="edge">
<title>events_users&#45;&gt;users</title>
<path fill="none" stroke="black" d="M114.37,-385.87C132.8,-388.87 154.09,-392.34 173.76,-395.54"/>
<ellipse fill="none" stroke="black" cx="177.84" cy="-396.21" rx="4" ry="4"/>
<text text-anchor="middle" x="173.79" y="-391.25" font-family="Bitstream-Vera Sans" font-size="7.00">+ id</text>
<text text-anchor="middle" x="131.87" y="-380.27" font-family="Bitstream-Vera Sans" font-size="7.00">+ user_id</text>
</g>
<!-- events -->
<g id="node7" class="node">
<title>events</title>
<text text-anchor="start" x="226.5" y="-567.4" font-family="Bitstream-Vera Sans" font-size="7.00">events</text>
<polygon fill="none" stroke="black" points="191,-561 191,-563 287,-563 287,-561 191,-561"/>
<text text-anchor="start" x="193" y="-553.4" font-family="Bitstream-Vera Sans" font-size="7.00">&#45; id : VARCHAR</text>
<text text-anchor="start" x="193" y="-541.4" font-family="Bitstream-Vera Sans" font-size="7.00">&#45; start : TIMESTAMP</text>
<text text-anchor="start" x="193" y="-529.4" font-family="Bitstream-Vera Sans" font-size="7.00">&#45; end : TIMESTAMP</text>
<text text-anchor="start" x="193" y="-517.4" font-family="Bitstream-Vera Sans" font-size="7.00">&#45; label : VARCHAR</text>
<text text-anchor="start" x="193" y="-505.4" font-family="Bitstream-Vera Sans" font-size="7.00">&#45; externalId : VARCHAR</text>
<text text-anchor="start" x="193" y="-493.4" font-family="Bitstream-Vera Sans" font-size="7.00">&#45; lastchange : TIMESTAMP</text>
<polygon fill="none" stroke="black" points="190,-488 190,-576 288,-576 288,-488 190,-488"/>
</g>
<!-- events_users&#45;&gt;events -->
<g id="edge4" class="edge">
<title>events_users&#45;&gt;events</title>
<path fill="none" stroke="black" d="M114.33,-403.98C119.91,-407.97 125.29,-412.33 130,-417 151.54,-438.37 145.81,-452.36 166,-475 169.13,-478.51 172.49,-481.96 175.99,-485.33"/>
<ellipse fill="none" stroke="black" cx="179.06" cy="-488.19" rx="4" ry="4"/>
<text text-anchor="middle" x="173.99" y="-485.31" font-family="Bitstream-Vera Sans" font-size="7.00">+ id</text>
<text text-anchor="middle" x="134.33" y="-398.38" font-family="Bitstream-Vera Sans" font-size="7.00">+ event_id</text>
</g>
<!-- programs -->
<g id="node8" class="node">
<title>programs</title>
<text text-anchor="start" x="687.5" y="-204.4" font-family="Bitstream-Vera Sans" font-size="7.00">programs</text>
<polygon fill="none" stroke="black" points="657,-198 657,-200 753,-200 753,-198 657,-198"/>
<text text-anchor="start" x="659" y="-190.4" font-family="Bitstream-Vera Sans" font-size="7.00">&#45; id : VARCHAR</text>
<text text-anchor="start" x="659" y="-178.4" font-family="Bitstream-Vera Sans" font-size="7.00">&#45; name : VARCHAR</text>
<text text-anchor="start" x="659" y="-166.4" font-family="Bitstream-Vera Sans" font-size="7.00">&#45; lastchange : TIMESTAMP</text>
<text text-anchor="start" x="659" y="-154.4" font-family="Bitstream-Vera Sans" font-size="7.00">&#45; externalId : BIGINT</text>
<polygon fill="none" stroke="black" points="656,-149 656,-213 754,-213 754,-149 656,-149"/>
</g>
<!-- programs_users -->
<g id="node9" class="node">
<title>programs_users</title>
<text text-anchor="start" x="36" y="-239.4" font-family="Bitstream-Vera Sans" font-size="7.00">programs_users</text>
<polygon fill="none" stroke="black" points="20,-233 20,-235 110,-235 110,-233 20,-233"/>
<text text-anchor="start" x="22" y="-225.4" font-family="Bitstream-Vera Sans" font-size="7.00">&#45; id : VARCHAR</text>
<text text-anchor="start" x="22" y="-213.4" font-family="Bitstream-Vera Sans" font-size="7.00">&#45; program_id : VARCHAR</text>
<text text-anchor="start" x="22" y="-201.4" font-family="Bitstream-Vera Sans" font-size="7.00">&#45; user_id : VARCHAR</text>
<text text-anchor="start" x="22" y="-189.4" font-family="Bitstream-Vera Sans" font-size="7.00">&#45; roletype_id : VARCHAR</text>
<polygon fill="none" stroke="black" points="19,-184 19,-248 111,-248 111,-184 19,-184"/>
</g>
<!-- programs_users&#45;&gt;users -->
<g id="edge5" class="edge">
<title>programs_users&#45;&gt;users</title>
<path fill="none" stroke="black" d="M119.27,-250.01C123.12,-253.48 126.76,-257.16 130,-261 154.08,-289.58 144.15,-306.68 166,-337 169.2,-341.44 172.7,-345.83 176.39,-350.12"/>
<ellipse fill="none" stroke="black" cx="179.25" cy="-353.33" rx="4" ry="4"/>
<text text-anchor="middle" x="173.9" y="-350.72" font-family="Bitstream-Vera Sans" font-size="7.00">+ id</text>
<text text-anchor="middle" x="136.77" y="-244.41" font-family="Bitstream-Vera Sans" font-size="7.00">+ user_id</text>
</g>
<!-- programs_users&#45;&gt;programs -->
<g id="edge6" class="edge">
<title>programs_users&#45;&gt;programs</title>
<path fill="none" stroke="black" d="M119.26,-216.57C217.13,-217.08 432.04,-215.69 612,-197 620.98,-196.07 630.41,-194.78 639.66,-193.35"/>
<ellipse fill="none" stroke="black" cx="643.78" cy="-192.68" rx="4" ry="4"/>
<text text-anchor="middle" x="639.73" y="-186.45" font-family="Bitstream-Vera Sans" font-size="7.00">+ id</text>
<text text-anchor="middle" x="144.26" y="-210.97" font-family="Bitstream-Vera Sans" font-size="7.00">+ program_id</text>
</g>
<!-- acreditationuserroletypes -->
<g id="node10" class="node">
<title>acreditationuserroletypes</title>
<text text-anchor="start" x="192" y="-85.4" font-family="Bitstream-Vera Sans" font-size="7.00">acreditationuserroletypes</text>
<polygon fill="none" stroke="black" points="190,-79 190,-81 289,-81 289,-79 190,-79"/>
<text text-anchor="start" x="192" y="-71.4" font-family="Bitstream-Vera Sans" font-size="7.00">&#45; id : VARCHAR</text>
<text text-anchor="start" x="192" y="-59.4" font-family="Bitstream-Vera Sans" font-size="7.00">&#45; name : VARCHAR</text>
<polygon fill="none" stroke="black" points="188.5,-54 188.5,-94 289.5,-94 289.5,-54 188.5,-54"/>
</g>
<!-- programs_users&#45;&gt;acreditationuserroletypes -->
<g id="edge7" class="edge">
<title>programs_users&#45;&gt;acreditationuserroletypes</title>
<path fill="none" stroke="black" d="M119.29,-181.45C123.1,-178.12 126.72,-174.63 130,-171 151.89,-146.79 141.99,-129.1 166,-107 168.31,-104.87 170.78,-102.86 173.37,-100.96"/>
<ellipse fill="none" stroke="black" cx="177.13" cy="-98.44" rx="4" ry="4"/>
<text text-anchor="middle" x="172.45" y="-90.6" font-family="Bitstream-Vera Sans" font-size="7.00">+ id</text>
<text text-anchor="middle" x="144.29" y="-175.85" font-family="Bitstream-Vera Sans" font-size="7.00">+ roletype_id</text>
</g>
<!-- subjects -->
<g id="node11" class="node">
<title>subjects</title>
<text text-anchor="start" x="539.5" y="-175.4" font-family="Bitstream-Vera Sans" font-size="7.00">subjects</text>
<polygon fill="none" stroke="black" points="507,-169 507,-171 603,-171 603,-169 507,-169"/>
<text text-anchor="start" x="509" y="-161.4" font-family="Bitstream-Vera Sans" font-size="7.00">&#45; id : VARCHAR</text>
<text text-anchor="start" x="509" y="-149.4" font-family="Bitstream-Vera Sans" font-size="7.00">&#45; name : VARCHAR</text>
<text text-anchor="start" x="509" y="-137.4" font-family="Bitstream-Vera Sans" font-size="7.00">&#45; lastchange : TIMESTAMP</text>
<text text-anchor="start" x="509" y="-125.4" font-family="Bitstream-Vera Sans" font-size="7.00">&#45; externalId : VARCHAR</text>
<text text-anchor="start" x="509" y="-113.4" font-family="Bitstream-Vera Sans" font-size="7.00">&#45; program_id : VARCHAR</text>
<polygon fill="none" stroke="black" points="506,-108 506,-184 604,-184 604,-108 506,-108"/>
</g>
<!-- subjects&#45;&gt;programs -->
<g id="edge8" class="edge">
<title>subjects&#45;&gt;programs</title>
<path fill="none" stroke="black" d="M612.37,-159.33C621.35,-161.45 630.69,-163.66 639.82,-165.82"/>
<ellipse fill="none" stroke="black" cx="643.89" cy="-166.78" rx="4" ry="4"/>
<text text-anchor="middle" x="639.78" y="-162.11" font-family="Bitstream-Vera Sans" font-size="7.00">+ id</text>
<text text-anchor="middle" x="637.37" y="-153.73" font-family="Bitstream-Vera Sans" font-size="7.00">+ program_id</text>
</g>
<!-- studyplans -->
<g id="node12" class="node">
<title>studyplans</title>
<text text-anchor="start" x="385" y="-979.4" font-family="Bitstream-Vera Sans" font-size="7.00">studyplans</text>
<polygon fill="none" stroke="black" points="362,-973 362,-975 448,-975 448,-973 362,-973"/>
<text text-anchor="start" x="364" y="-965.4" font-family="Bitstream-Vera Sans" font-size="7.00">&#45; id : VARCHAR</text>
<text text-anchor="start" x="364" y="-953.4" font-family="Bitstream-Vera Sans" font-size="7.00">&#45; name : VARCHAR</text>
<text text-anchor="start" x="364" y="-941.4" font-family="Bitstream-Vera Sans" font-size="7.00">&#45; externalId : VARCHAR</text>
<polygon fill="none" stroke="black" points="361,-936 361,-988 449,-988 449,-936 361,-936"/>
</g>
<!-- studyplanitems -->
<g id="node13" class="node">
<title>studyplanitems</title>
<text text-anchor="start" x="210.5" y="-681.4" font-family="Bitstream-Vera Sans" font-size="7.00">studyplanitems</text>
<polygon fill="none" stroke="black" points="175,-675 175,-677 303,-677 303,-675 175,-675"/>
<text text-anchor="start" x="177" y="-667.4" font-family="Bitstream-Vera Sans" font-size="7.00">&#45; id : VARCHAR</text>
<text text-anchor="start" x="177" y="-655.4" font-family="Bitstream-Vera Sans" font-size="7.00">&#45; name : VARCHAR</text>
<text text-anchor="start" x="177" y="-643.4" font-family="Bitstream-Vera Sans" font-size="7.00">&#45; priority : BIGINT</text>
<text text-anchor="start" x="177" y="-631.4" font-family="Bitstream-Vera Sans" font-size="7.00">&#45; subjectSemesterTopic : VARCHAR</text>
<text text-anchor="start" x="177" y="-619.4" font-family="Bitstream-Vera Sans" font-size="7.00">&#45; externalId : VARCHAR</text>
<text text-anchor="start" x="177" y="-607.4" font-family="Bitstream-Vera Sans" font-size="7.00">&#45; studyplan_id : VARCHAR</text>
<polygon fill="none" stroke="black" points="174,-602 174,-690 304,-690 304,-602 174,-602"/>
</g>
<!-- studyplanitems&#45;&gt;studyplans -->
<g id="edge9" class="edge">
<title>studyplanitems&#45;&gt;studyplans</title>
<path fill="none" stroke="black" d="M306.02,-694.24C308.2,-697.06 310.21,-699.98 312,-703 360.7,-785.23 300.48,-832.08 348,-915 350.17,-918.79 352.77,-922.4 355.64,-925.83"/>
<ellipse fill="none" stroke="black" cx="358.37" cy="-928.82" rx="4" ry="4"/>
<text text-anchor="middle" x="353.06" y="-926.18" font-family="Bitstream-Vera Sans" font-size="7.00">+ id</text>
<text text-anchor="middle" x="278.52" y="-696.64" font-family="Bitstream-Vera Sans" font-size="7.00">+ studyplan_id</text>
</g>
<!-- users_groups -->
<g id="node14" class="node">
<title>users_groups</title>
<text text-anchor="start" x="40.5" y="-551.4" font-family="Bitstream-Vera Sans" font-size="7.00">users_groups</text>
<polygon fill="none" stroke="black" points="25,-545 25,-547 105,-547 105,-545 25,-545"/>
<text text-anchor="start" x="27" y="-537.4" font-family="Bitstream-Vera Sans" font-size="7.00">&#45; id : VARCHAR</text>
<text text-anchor="start" x="27" y="-525.4" font-family="Bitstream-Vera Sans" font-size="7.00">&#45; user_id : VARCHAR</text>
<text text-anchor="start" x="27" y="-513.4" font-family="Bitstream-Vera Sans" font-size="7.00">&#45; group_id : VARCHAR</text>
<polygon fill="none" stroke="black" points="24,-508 24,-560 106,-560 106,-508 24,-508"/>
</g>
<!-- users_groups&#45;&gt;groups -->
<g id="edge10" class="edge">
<title>users_groups&#45;&gt;groups</title>
<path fill="none" stroke="black" d="M114.27,-556.98C120.29,-561.57 125.8,-566.89 130,-573 180.2,-645.97 133.6,-686.57 166,-769 172.11,-784.54 180.45,-800.24 189.29,-814.8"/>
<ellipse fill="none" stroke="black" cx="191.55" cy="-818.45" rx="4" ry="4"/>
<text text-anchor="middle" x="201.66" y="-816.25" font-family="Bitstream-Vera Sans" font-size="7.00">+ id</text>
<text text-anchor="middle" x="134.27" y="-551.38" font-family="Bitstream-Vera Sans" font-size="7.00">+ group_id</text>
</g>
<!-- users_groups&#45;&gt;users -->
<g id="edge11" class="edge">
<title>users_groups&#45;&gt;users</title>
<path fill="none" stroke="black" d="M114.01,-505.77C119.48,-502.25 124.91,-498.62 130,-495 145.16,-484.22 160.91,-471.92 175.54,-459.99"/>
<ellipse fill="none" stroke="black" cx="178.65" cy="-457.44" rx="4" ry="4"/>
<text text-anchor="middle" x="173.74" y="-449.3" font-family="Bitstream-Vera Sans" font-size="7.00">+ id</text>
<text text-anchor="middle" x="131.51" y="-500.17" font-family="Bitstream-Vera Sans" font-size="7.00">+ user_id</text>
</g>
<!-- groups_groups -->
<g id="node15" class="node">
<title>groups_groups</title>
<text text-anchor="start" x="38.5" y="-977.4" font-family="Bitstream-Vera Sans" font-size="7.00">groups_groups</text>
<polygon fill="none" stroke="black" points="24,-971 24,-973 107,-973 107,-971 24,-971"/>
<text text-anchor="start" x="26" y="-963.4" font-family="Bitstream-Vera Sans" font-size="7.00">&#45; id : VARCHAR</text>
<text text-anchor="start" x="26" y="-951.4" font-family="Bitstream-Vera Sans" font-size="7.00">&#45; child_id : VARCHAR</text>
<text text-anchor="start" x="26" y="-939.4" font-family="Bitstream-Vera Sans" font-size="7.00">&#45; parent_id : VARCHAR</text>
<polygon fill="none" stroke="black" points="22.5,-934 22.5,-986 107.5,-986 107.5,-934 22.5,-934"/>
</g>
<!-- groups_groups&#45;&gt;groups -->
<g id="edge12" class="edge">
<title>groups_groups&#45;&gt;groups</title>
<path fill="none" stroke="black" d="M115.75,-931.25C133.88,-922.43 154.64,-912.9 173.85,-904.54"/>
<ellipse fill="none" stroke="black" cx="177.73" cy="-902.86" rx="4" ry="4"/>
<text text-anchor="middle" x="173.4" y="-895.68" font-family="Bitstream-Vera Sans" font-size="7.00">+ id</text>
<text text-anchor="middle" x="134.25" y="-925.65" font-family="Bitstream-Vera Sans" font-size="7.00">+ child_id</text>
</g>
<!-- groups_groups&#45;&gt;groups -->
<g id="edge13" class="edge">
<title>groups_groups&#45;&gt;groups</title>
<path fill="none" stroke="black" d="M115.75,-943.63C133.96,-935.97 154.83,-926.63 174.1,-917.52"/>
<ellipse fill="none" stroke="black" cx="177.79" cy="-915.77" rx="4" ry="4"/>
<text text-anchor="middle" x="173.4" y="-908.45" font-family="Bitstream-Vera Sans" font-size="7.00">+ id</text>
<text text-anchor="middle" x="137.25" y="-938.03" font-family="Bitstream-Vera Sans" font-size="7.00">+ parent_id</text>
</g>
<!-- grouproletypes -->
<g id="node16" class="node">
<title>grouproletypes</title>
<text text-anchor="start" x="211.5" y="-747.4" font-family="Bitstream-Vera Sans" font-size="7.00">grouproletypes</text>
<polygon fill="none" stroke="black" points="205,-741 205,-743 274,-743 274,-741 205,-741"/>
<text text-anchor="start" x="207" y="-733.4" font-family="Bitstream-Vera Sans" font-size="7.00">&#45; id : VARCHAR</text>
<text text-anchor="start" x="207" y="-721.4" font-family="Bitstream-Vera Sans" font-size="7.00">&#45; name : VARCHAR</text>
<polygon fill="none" stroke="black" points="203.5,-716 203.5,-756 274.5,-756 274.5,-716 203.5,-716"/>
</g>
<!-- roles -->
<g id="node17" class="node">
<title>roles</title>
<text text-anchor="start" x="55.5" y="-743.4" font-family="Bitstream-Vera Sans" font-size="7.00">roles</text>
<polygon fill="none" stroke="black" points="17,-737 17,-739 113,-739 113,-737 17,-737"/>
<text text-anchor="start" x="19" y="-729.4" font-family="Bitstream-Vera Sans" font-size="7.00">&#45; id : VARCHAR</text>
<text text-anchor="start" x="19" y="-717.4" font-family="Bitstream-Vera Sans" font-size="7.00">&#45; name : VARCHAR</text>
<text text-anchor="start" x="19" y="-705.4" font-family="Bitstream-Vera Sans" font-size="7.00">&#45; lastchange : TIMESTAMP</text>
<text text-anchor="start" x="19" y="-693.4" font-family="Bitstream-Vera Sans" font-size="7.00">&#45; roletype_id : VARCHAR</text>
<text text-anchor="start" x="19" y="-681.4" font-family="Bitstream-Vera Sans" font-size="7.00">&#45; user_id : VARCHAR</text>
<text text-anchor="start" x="19" y="-669.4" font-family="Bitstream-Vera Sans" font-size="7.00">&#45; group_id : VARCHAR</text>
<polygon fill="none" stroke="black" points="16,-664 16,-752 114,-752 114,-664 16,-664"/>
</g>
<!-- roles&#45;&gt;groups -->
<g id="edge14" class="edge">
<title>roles&#45;&gt;groups</title>
<path fill="none" stroke="black" d="M120.8,-756.16C123.94,-759.12 127.03,-762.08 130,-765 146.25,-780.96 163.22,-798.76 178.77,-815.57"/>
<ellipse fill="none" stroke="black" cx="181.72" cy="-818.77" rx="4" ry="4"/>
<text text-anchor="middle" x="176.43" y="-816.11" font-family="Bitstream-Vera Sans" font-size="7.00">+ id</text>
<text text-anchor="middle" x="100.8" y="-758.56" font-family="Bitstream-Vera Sans" font-size="7.00">+ group_id</text>
</g>
<!-- roles&#45;&gt;users -->
<g id="edge16" class="edge">
<title>roles&#45;&gt;users</title>
<path fill="none" stroke="black" d="M122.08,-662.57C125.02,-658.86 127.7,-655 130,-651 169.84,-581.81 127.43,-544.91 166,-475 169.06,-469.46 172.71,-464.09 176.73,-458.96"/>
<ellipse fill="none" stroke="black" cx="179.44" cy="-455.68" rx="4" ry="4"/>
<text text-anchor="middle" x="173.99" y="-455" font-family="Bitstream-Vera Sans" font-size="7.00">+ id</text>
<text text-anchor="middle" x="139.58" y="-656.97" font-family="Bitstream-Vera Sans" font-size="7.00">+ user_id</text>
</g>
<!-- roles&#45;&gt;grouproletypes -->
<g id="edge15" class="edge">
<title>roles&#45;&gt;grouproletypes</title>
<path fill="none" stroke="black" d="M122.32,-717.17C143.34,-720.59 167.05,-724.45 187.51,-727.78"/>
<ellipse fill="none" stroke="black" cx="191.52" cy="-728.43" rx="4" ry="4"/>
<text text-anchor="middle" x="187.47" y="-723.48" font-family="Bitstream-Vera Sans" font-size="7.00">+ id</text>
<text text-anchor="middle" x="147.32" y="-711.57" font-family="Bitstream-Vera Sans" font-size="7.00">+ roletype_id</text>
</g>
<!-- rooms -->
<g id="node18" class="node">
<title>rooms</title>
<text text-anchor="start" x="227.5" y="-315.4" font-family="Bitstream-Vera Sans" font-size="7.00">rooms</text>
<polygon fill="none" stroke="black" points="191,-309 191,-311 287,-311 287,-309 191,-309"/>
<text text-anchor="start" x="193" y="-301.4" font-family="Bitstream-Vera Sans" font-size="7.00">&#45; id : VARCHAR</text>
<text text-anchor="start" x="193" y="-289.4" font-family="Bitstream-Vera Sans" font-size="7.00">&#45; name : VARCHAR</text>
<text text-anchor="start" x="193" y="-277.4" font-family="Bitstream-Vera Sans" font-size="7.00">&#45; lastchange : TIMESTAMP</text>
<text text-anchor="start" x="193" y="-265.4" font-family="Bitstream-Vera Sans" font-size="7.00">&#45; externalId : VARCHAR</text>
<text text-anchor="start" x="193" y="-253.4" font-family="Bitstream-Vera Sans" font-size="7.00">&#45; building_id : VARCHAR</text>
<polygon fill="none" stroke="black" points="190,-248 190,-324 288,-324 288,-248 190,-248"/>
</g>
<!-- rooms&#45;&gt;buildings -->
<g id="edge17" class="edge">
<title>rooms&#45;&gt;buildings</title>
<path fill="none" stroke="black" d="M296.44,-286C310.3,-286 325.25,-286 339.46,-286"/>
<ellipse fill="none" stroke="black" cx="343.73" cy="-286" rx="4" ry="4"/>
<text text-anchor="middle" x="339.73" y="-288.4" font-family="Bitstream-Vera Sans" font-size="7.00">+ id</text>
<text text-anchor="middle" x="320.94" y="-280.4" font-family="Bitstream-Vera Sans" font-size="7.00">+ building_id</text>
</g>
<!-- events_groups -->
<g id="node19" class="node">
<title>events_groups</title>
<text text-anchor="start" x="38" y="-821.4" font-family="Bitstream-Vera Sans" font-size="7.00">events_groups</text>
<polygon fill="none" stroke="black" points="25,-815 25,-817 105,-817 105,-815 25,-815"/>
<text text-anchor="start" x="27" y="-807.4" font-family="Bitstream-Vera Sans" font-size="7.00">&#45; id : VARCHAR</text>
<text text-anchor="start" x="27" y="-795.4" font-family="Bitstream-Vera Sans" font-size="7.00">&#45; group_id : VARCHAR</text>
<text text-anchor="start" x="27" y="-783.4" font-family="Bitstream-Vera Sans" font-size="7.00">&#45; event_id : VARCHAR</text>
<polygon fill="none" stroke="black" points="24,-778 24,-830 106,-830 106,-778 24,-778"/>
</g>
<!-- events_groups&#45;&gt;groups -->
<g id="edge18" class="edge">
<title>events_groups&#45;&gt;groups</title>
<path fill="none" stroke="black" d="M114.37,-825.93C132.87,-834.33 154.27,-844.03 174.01,-852.98"/>
<ellipse fill="none" stroke="black" cx="177.84" cy="-854.72" rx="4" ry="4"/>
<text text-anchor="middle" x="173.48" y="-850.77" font-family="Bitstream-Vera Sans" font-size="7.00">+ id</text>
<text text-anchor="middle" x="134.37" y="-820.33" font-family="Bitstream-Vera Sans" font-size="7.00">+ group_id</text>
</g>
<!-- events_groups&#45;&gt;events -->
<g id="edge19" class="edge">
<title>events_groups&#45;&gt;events</title>
<path fill="none" stroke="black" d="M114.16,-780.94C120.2,-776.37 125.74,-771.07 130,-765 175.91,-699.68 124.17,-657.01 166,-589 168.92,-584.26 172.38,-579.74 176.19,-575.49"/>
<ellipse fill="none" stroke="black" cx="179.21" cy="-572.34" rx="4" ry="4"/>
<text text-anchor="middle" x="173.98" y="-563.85" font-family="Bitstream-Vera Sans" font-size="7.00">+ id</text>
<text text-anchor="middle" x="134.16" y="-775.34" font-family="Bitstream-Vera Sans" font-size="7.00">+ event_id</text>
</g>
<!-- subjects_users -->
<g id="node20" class="node">
<title>subjects_users</title>
<text text-anchor="start" x="38" y="-59.4" font-family="Bitstream-Vera Sans" font-size="7.00">subjects_users</text>
<polygon fill="none" stroke="black" points="20,-53 20,-55 110,-55 110,-53 20,-53"/>
<text text-anchor="start" x="22" y="-45.4" font-family="Bitstream-Vera Sans" font-size="7.00">&#45; id : VARCHAR</text>
<text text-anchor="start" x="22" y="-33.4" font-family="Bitstream-Vera Sans" font-size="7.00">&#45; subject_id : VARCHAR</text>
<text text-anchor="start" x="22" y="-21.4" font-family="Bitstream-Vera Sans" font-size="7.00">&#45; user_id : VARCHAR</text>
<text text-anchor="start" x="22" y="-9.4" font-family="Bitstream-Vera Sans" font-size="7.00">&#45; roletype_id : VARCHAR</text>
<polygon fill="none" stroke="black" points="19,-4 19,-68 111,-68 111,-4 19,-4"/>
</g>
<!-- subjects_users&#45;&gt;users -->
<g id="edge22" class="edge">
<title>subjects_users&#45;&gt;users</title>
<path fill="none" stroke="black" d="M119.16,-67.56C123.3,-71.65 127.02,-76.13 130,-81 189.94,-179.02 113.64,-234.73 166,-337 168.94,-342.74 172.55,-348.28 176.57,-353.54"/>
<ellipse fill="none" stroke="black" cx="179.35" cy="-356.95" rx="4" ry="4"/>
<text text-anchor="middle" x="173.87" y="-362.46" font-family="Bitstream-Vera Sans" font-size="7.00">+ id</text>
<text text-anchor="middle" x="136.66" y="-61.96" font-family="Bitstream-Vera Sans" font-size="7.00">+ user_id</text>
</g>
<!-- subjects_users&#45;&gt;acreditationuserroletypes -->
<g id="edge20" class="edge">
<title>subjects_users&#45;&gt;acreditationuserroletypes</title>
<path fill="none" stroke="black" d="M119.01,-47.71C135.87,-51.44 154.73,-55.6 172.37,-59.5"/>
<ellipse fill="none" stroke="black" cx="176.48" cy="-60.41" rx="4" ry="4"/>
<text text-anchor="middle" x="172.38" y="-55.67" font-family="Bitstream-Vera Sans" font-size="7.00">+ id</text>
<text text-anchor="middle" x="144.01" y="-42.11" font-family="Bitstream-Vera Sans" font-size="7.00">+ roletype_id</text>
</g>
<!-- subjects_users&#45;&gt;subjects -->
<g id="edge21" class="edge">
<title>subjects_users&#45;&gt;subjects</title>
<path fill="none" stroke="black" d="M119.44,-31.36C169.72,-28.34 246.81,-27.18 312,-41 382.73,-56 395.77,-74.98 462,-104 471.14,-108 480.75,-112.3 490.18,-116.56"/>
<ellipse fill="none" stroke="black" cx="494.04" cy="-118.31" rx="4" ry="4"/>
<text text-anchor="middle" x="489.68" y="-114.36" font-family="Bitstream-Vera Sans" font-size="7.00">+ id</text>
<text text-anchor="middle" x="142.44" y="-25.76" font-family="Bitstream-Vera Sans" font-size="7.00">+ subject_id</text>
</g>
<!-- subjectsemesters -->
<g id="node21" class="node">
<title>subjectsemesters</title>
<text text-anchor="start" x="373" y="-172.4" font-family="Bitstream-Vera Sans" font-size="7.00">subjectsemesters</text>
<polygon fill="none" stroke="black" points="357,-166 357,-168 453,-168 453,-166 357,-166"/>
<text text-anchor="start" x="359" y="-158.4" font-family="Bitstream-Vera Sans" font-size="7.00">&#45; id : VARCHAR</text>
<text text-anchor="start" x="359" y="-146.4" font-family="Bitstream-Vera Sans" font-size="7.00">&#45; name : VARCHAR</text>
<text text-anchor="start" x="359" y="-134.4" font-family="Bitstream-Vera Sans" font-size="7.00">&#45; lastchange : TIMESTAMP</text>
<text text-anchor="start" x="359" y="-122.4" font-family="Bitstream-Vera Sans" font-size="7.00">&#45; subject_id : VARCHAR</text>
<polygon fill="none" stroke="black" points="356,-117 356,-181 454,-181 454,-117 356,-117"/>
</g>
<!-- subjectsemesters&#45;&gt;subjects -->
<g id="edge23" class="edge">
<title>subjectsemesters&#45;&gt;subjects</title>
<path fill="none" stroke="black" d="M462.37,-147.86C471.26,-147.68 480.5,-147.49 489.54,-147.31"/>
<ellipse fill="none" stroke="black" cx="493.78" cy="-147.22" rx="4" ry="4"/>
<text text-anchor="middle" x="489.78" y="-149.54" font-family="Bitstream-Vera Sans" font-size="7.00">+ id</text>
<text text-anchor="middle" x="485.37" y="-142.26" font-family="Bitstream-Vera Sans" font-size="7.00">+ subject_id</text>
</g>
<!-- studyplans_groups -->
<g id="node22" class="node">
<title>studyplans_groups</title>
<text text-anchor="start" x="31" y="-1055.4" font-family="Bitstream-Vera Sans" font-size="7.00">studyplans_groups</text>
<polygon fill="none" stroke="black" points="18,-1049 18,-1051 113,-1051 113,-1049 18,-1049"/>
<text text-anchor="start" x="20" y="-1041.4" font-family="Bitstream-Vera Sans" font-size="7.00">&#45; id : VARCHAR</text>
<text text-anchor="start" x="20" y="-1029.4" font-family="Bitstream-Vera Sans" font-size="7.00">&#45; studyplan_id : VARCHAR</text>
<text text-anchor="start" x="20" y="-1017.4" font-family="Bitstream-Vera Sans" font-size="7.00">&#45; group_id : VARCHAR</text>
<polygon fill="none" stroke="black" points="16.5,-1012 16.5,-1064 113.5,-1064 113.5,-1012 16.5,-1012"/>
</g>
<!-- studyplans_groups&#45;&gt;groups -->
<g id="edge25" class="edge">
<title>studyplans_groups&#45;&gt;groups</title>
<path fill="none" stroke="black" d="M118.2,-1007.91C122.29,-1005.03 126.28,-1002.05 130,-999 148.28,-984.02 166.4,-966 182.42,-948.63"/>
<ellipse fill="none" stroke="black" cx="185.53" cy="-945.23" rx="4" ry="4"/>
<text text-anchor="middle" x="180.23" y="-944.67" font-family="Bitstream-Vera Sans" font-size="7.00">+ id</text>
<text text-anchor="middle" x="98.2" y="-1002.31" font-family="Bitstream-Vera Sans" font-size="7.00">+ group_id</text>
</g>
<!-- studyplans_groups&#45;&gt;studyplans -->
<g id="edge24" class="edge">
<title>studyplans_groups&#45;&gt;studyplans</title>
<path fill="none" stroke="black" d="M121.81,-1025.45C183.4,-1011.6 282.1,-989.41 344.95,-975.28"/>
<ellipse fill="none" stroke="black" cx="348.91" cy="-974.39" rx="4" ry="4"/>
<text text-anchor="middle" x="344.81" y="-967.91" font-family="Bitstream-Vera Sans" font-size="7.00">+ id</text>
<text text-anchor="middle" x="149.31" y="-1019.85" font-family="Bitstream-Vera Sans" font-size="7.00">+ studyplan_id</text>
</g>
<!-- studyplanitem_events -->
<g id="node23" class="node">
<title>studyplanitem_events</title>
<text text-anchor="start" x="24" y="-629.4" font-family="Bitstream-Vera Sans" font-size="7.00">studyplanitem_events</text>
<polygon fill="none" stroke="black" points="9,-623 9,-625 121,-625 121,-623 9,-623"/>
<text text-anchor="start" x="11" y="-615.4" font-family="Bitstream-Vera Sans" font-size="7.00">&#45; id : VARCHAR</text>
<text text-anchor="start" x="11" y="-603.4" font-family="Bitstream-Vera Sans" font-size="7.00">&#45; studyplanitem_id : VARCHAR</text>
<text text-anchor="start" x="11" y="-591.4" font-family="Bitstream-Vera Sans" font-size="7.00">&#45; event_id : VARCHAR</text>
<polygon fill="none" stroke="black" points="8,-586 8,-638 122,-638 122,-586 8,-586"/>
</g>
<!-- studyplanitem_events&#45;&gt;events -->
<g id="edge27" class="edge">
<title>studyplanitem_events&#45;&gt;events</title>
<path fill="none" stroke="black" d="M130.05,-582.21C144.52,-575.48 159.89,-568.33 174.35,-561.6"/>
<ellipse fill="none" stroke="black" cx="178.2" cy="-559.82" rx="4" ry="4"/>
<text text-anchor="middle" x="173.82" y="-552.53" font-family="Bitstream-Vera Sans" font-size="7.00">+ id</text>
<text text-anchor="middle" x="110.05" y="-576.61" font-family="Bitstream-Vera Sans" font-size="7.00">+ event_id</text>
</g>
<!-- studyplanitem_events&#45;&gt;studyplanitems -->
<g id="edge26" class="edge">
<title>studyplanitem_events&#45;&gt;studyplanitems</title>
<path fill="none" stroke="black" d="M130.05,-624.66C139.06,-626.44 148.42,-628.29 157.68,-630.12"/>
<ellipse fill="none" stroke="black" cx="161.87" cy="-630.95" rx="4" ry="4"/>
<text text-anchor="middle" x="157.8" y="-634.13" font-family="Bitstream-Vera Sans" font-size="7.00">+ id</text>
<text text-anchor="middle" x="166.05" y="-619.06" font-family="Bitstream-Vera Sans" font-size="7.00">+ studyplanitem_id</text>
</g>
<!-- studyplanitem_teachers -->
<g id="node24" class="node">
<title>studyplanitem_teachers</title>
<text text-anchor="start" x="21" y="-473.4" font-family="Bitstream-Vera Sans" font-size="7.00">studyplanitem_teachers</text>
<polygon fill="none" stroke="black" points="9,-467 9,-469 121,-469 121,-467 9,-467"/>
<text text-anchor="start" x="11" y="-459.4" font-family="Bitstream-Vera Sans" font-size="7.00">&#45; id : VARCHAR</text>
<text text-anchor="start" x="11" y="-447.4" font-family="Bitstream-Vera Sans" font-size="7.00">&#45; teacher_id : VARCHAR</text>
<text text-anchor="start" x="11" y="-435.4" font-family="Bitstream-Vera Sans" font-size="7.00">&#45; studyplanitem_id : VARCHAR</text>
<polygon fill="none" stroke="black" points="8,-430 8,-482 122,-482 122,-430 8,-430"/>
</g>
<!-- studyplanitem_teachers&#45;&gt;users -->
<g id="edge29" class="edge">
<title>studyplanitem_teachers&#45;&gt;users</title>
<path fill="none" stroke="black" d="M130.05,-437.38C144.39,-433.21 159.61,-428.79 173.95,-424.62"/>
<ellipse fill="none" stroke="black" cx="177.98" cy="-423.45" rx="4" ry="4"/>
<text text-anchor="middle" x="173.82" y="-416.73" font-family="Bitstream-Vera Sans" font-size="7.00">+ id</text>
<text text-anchor="middle" x="153.55" y="-431.78" font-family="Bitstream-Vera Sans" font-size="7.00">+ teacher_id</text>
</g>
<!-- studyplanitem_teachers&#45;&gt;studyplanitems -->
<g id="edge28" class="edge">
<title>studyplanitem_teachers&#45;&gt;studyplanitems</title>
<path fill="none" stroke="black" d="M121.43,-486.24C124.52,-488.98 127.42,-491.9 130,-495 158.64,-529.37 139.52,-552.94 166,-589 166.61,-589.83 167.24,-590.66 167.88,-591.48"/>
<ellipse fill="none" stroke="black" cx="170.47" cy="-594.57" rx="4" ry="4"/>
<text text-anchor="middle" x="165.03" y="-592.04" font-family="Bitstream-Vera Sans" font-size="7.00">+ id</text>
<text text-anchor="middle" x="85.43" y="-488.64" font-family="Bitstream-Vera Sans" font-size="7.00">+ studyplanitem_id</text>
</g>
<!-- studyplanitem_groups -->
<g id="node25" class="node">
<title>studyplanitem_groups</title>
<text text-anchor="start" x="24" y="-899.4" font-family="Bitstream-Vera Sans" font-size="7.00">studyplanitem_groups</text>
<polygon fill="none" stroke="black" points="9,-893 9,-895 121,-895 121,-893 9,-893"/>
<text text-anchor="start" x="11" y="-885.4" font-family="Bitstream-Vera Sans" font-size="7.00">&#45; id : VARCHAR</text>
<text text-anchor="start" x="11" y="-873.4" font-family="Bitstream-Vera Sans" font-size="7.00">&#45; group_id : VARCHAR</text>
<text text-anchor="start" x="11" y="-861.4" font-family="Bitstream-Vera Sans" font-size="7.00">&#45; studyplanitem_id : VARCHAR</text>
<polygon fill="none" stroke="black" points="8,-856 8,-908 122,-908 122,-856 8,-856"/>
</g>
<!-- studyplanitem_groups&#45;&gt;groups -->
<g id="edge30" class="edge">
<title>studyplanitem_groups&#45;&gt;groups</title>
<path fill="none" stroke="black" d="M130.05,-882C144.1,-882 158.99,-882 173.08,-882"/>
<ellipse fill="none" stroke="black" cx="177.26" cy="-882" rx="4" ry="4"/>
<text text-anchor="middle" x="173.26" y="-884.4" font-family="Bitstream-Vera Sans" font-size="7.00">+ id</text>
<text text-anchor="middle" x="150.05" y="-876.4" font-family="Bitstream-Vera Sans" font-size="7.00">+ group_id</text>
</g>
<!-- studyplanitem_groups&#45;&gt;studyplanitems -->
<g id="edge31" class="edge">
<title>studyplanitem_groups&#45;&gt;studyplanitems</title>
<path fill="none" stroke="black" d="M122.14,-851.81C125.02,-849.07 127.68,-846.14 130,-843 168.24,-791.38 130.98,-756.87 166,-703 166.56,-702.14 167.14,-701.28 167.74,-700.43"/>
<ellipse fill="none" stroke="black" cx="170.18" cy="-697.24" rx="4" ry="4"/>
<text text-anchor="middle" x="164.61" y="-696.46" font-family="Bitstream-Vera Sans" font-size="7.00">+ id</text>
<text text-anchor="middle" x="86.14" y="-846.21" font-family="Bitstream-Vera Sans" font-size="7.00">+ studyplanitem_id</text>
</g>
<!-- events_rooms -->
<g id="node26" class="node">
<title>events_rooms</title>
<text text-anchor="start" x="39" y="-317.4" font-family="Bitstream-Vera Sans" font-size="7.00">events_rooms</text>
<polygon fill="none" stroke="black" points="25,-311 25,-313 105,-313 105,-311 25,-311"/>
<text text-anchor="start" x="27" y="-303.4" font-family="Bitstream-Vera Sans" font-size="7.00">&#45; id : VARCHAR</text>
<text text-anchor="start" x="27" y="-291.4" font-family="Bitstream-Vera Sans" font-size="7.00">&#45; room_id : VARCHAR</text>
<text text-anchor="start" x="27" y="-279.4" font-family="Bitstream-Vera Sans" font-size="7.00">&#45; event_id : VARCHAR</text>
<polygon fill="none" stroke="black" points="24,-274 24,-326 106,-326 106,-274 24,-274"/>
</g>
<!-- events_rooms&#45;&gt;events -->
<g id="edge33" class="edge">
<title>events_rooms&#45;&gt;events</title>
<path fill="none" stroke="black" d="M114.17,-323.53C120.13,-328.01 125.64,-333.16 130,-339 167.4,-389.11 131.74,-422.7 166,-475 168.93,-479.48 172.34,-483.77 176.04,-487.83"/>
<ellipse fill="none" stroke="black" cx="178.87" cy="-490.75" rx="4" ry="4"/>
<text text-anchor="middle" x="173.65" y="-496.03" font-family="Bitstream-Vera Sans" font-size="7.00">+ id</text>
<text text-anchor="middle" x="134.17" y="-317.93" font-family="Bitstream-Vera Sans" font-size="7.00">+ event_id</text>
</g>
<!-- events_rooms&#45;&gt;rooms -->
<g id="edge32" class="edge">
<title>events_rooms&#45;&gt;rooms</title>
<path fill="none" stroke="black" d="M114.37,-296.06C132.8,-294.56 154.09,-292.83 173.76,-291.23"/>
<ellipse fill="none" stroke="black" cx="177.8" cy="-290.9" rx="4" ry="4"/>
<text text-anchor="middle" x="173.79" y="-284.98" font-family="Bitstream-Vera Sans" font-size="7.00">+ id</text>
<text text-anchor="middle" x="133.37" y="-290.46" font-family="Bitstream-Vera Sans" font-size="7.00">+ room_id</text>
</g>
<!-- subjecttopics -->
<g id="node27" class="node">
<title>subjecttopics</title>
<text text-anchor="start" x="215" y="-175.4" font-family="Bitstream-Vera Sans" font-size="7.00">subjecttopics</text>
<polygon fill="none" stroke="black" points="180,-169 180,-171 299,-171 299,-169 180,-169"/>
<text text-anchor="start" x="182" y="-161.4" font-family="Bitstream-Vera Sans" font-size="7.00">&#45; id : VARCHAR</text>
<text text-anchor="start" x="182" y="-149.4" font-family="Bitstream-Vera Sans" font-size="7.00">&#45; name : VARCHAR</text>
<text text-anchor="start" x="182" y="-137.4" font-family="Bitstream-Vera Sans" font-size="7.00">&#45; externalId : VARCHAR</text>
<text text-anchor="start" x="182" y="-125.4" font-family="Bitstream-Vera Sans" font-size="7.00">&#45; subjectsemester_id : VARCHAR</text>
<polygon fill="none" stroke="black" points="178.5,-120 178.5,-184 299.5,-184 299.5,-120 178.5,-120"/>
</g>
<!-- subjecttopics&#45;&gt;subjectsemesters -->
<g id="edge34" class="edge">
<title>subjecttopics&#45;&gt;subjectsemesters</title>
<path fill="none" stroke="black" d="M307.65,-150.76C318.34,-150.57 329.36,-150.37 339.96,-150.17"/>
<ellipse fill="none" stroke="black" cx="343.98" cy="-150.1" rx="4" ry="4"/>
<text text-anchor="middle" x="339.98" y="-152.42" font-family="Bitstream-Vera Sans" font-size="7.00">+ id</text>
<text text-anchor="middle" x="347.15" y="-145.16" font-family="Bitstream-Vera Sans" font-size="7.00">+ subjectsemester_id</text>
</g>
<!-- subjecttopics_users -->
<g id="node28" class="node">
<title>subjecttopics_users</title>
<text text-anchor="start" x="29" y="-149.4" font-family="Bitstream-Vera Sans" font-size="7.00">subjecttopics_users</text>
<polygon fill="none" stroke="black" points="13,-143 13,-145 117,-145 117,-143 13,-143"/>
<text text-anchor="start" x="15" y="-135.4" font-family="Bitstream-Vera Sans" font-size="7.00">&#45; id : VARCHAR</text>
<text text-anchor="start" x="15" y="-123.4" font-family="Bitstream-Vera Sans" font-size="7.00">&#45; subjecttopic_id : VARCHAR</text>
<text text-anchor="start" x="15" y="-111.4" font-family="Bitstream-Vera Sans" font-size="7.00">&#45; user_id : VARCHAR</text>
<text text-anchor="start" x="15" y="-99.4" font-family="Bitstream-Vera Sans" font-size="7.00">&#45; roletype_id : VARCHAR</text>
<polygon fill="none" stroke="black" points="12,-94 12,-158 118,-158 118,-94 12,-94"/>
</g>
<!-- subjecttopics_users&#45;&gt;users -->
<g id="edge35" class="edge">
<title>subjecttopics_users&#45;&gt;users</title>
<path fill="none" stroke="black" d="M123.15,-162.27C125.66,-165.03 127.97,-167.94 130,-171 171.74,-233.91 129.14,-271.12 166,-337 169.03,-342.42 172.63,-347.67 176.57,-352.7"/>
<ellipse fill="none" stroke="black" cx="179.18" cy="-355.86" rx="4" ry="4"/>
<text text-anchor="middle" x="173.73" y="-353.35" font-family="Bitstream-Vera Sans" font-size="7.00">+ id</text>
<text text-anchor="middle" x="105.65" y="-164.67" font-family="Bitstream-Vera Sans" font-size="7.00">+ user_id</text>
</g>
<!-- subjecttopics_users&#45;&gt;acreditationuserroletypes -->
<g id="edge37" class="edge">
<title>subjecttopics_users&#45;&gt;acreditationuserroletypes</title>
<path fill="none" stroke="black" d="M126.16,-107.81C141.17,-103.27 157.34,-98.38 172.6,-93.77"/>
<ellipse fill="none" stroke="black" cx="176.65" cy="-92.55" rx="4" ry="4"/>
<text text-anchor="middle" x="172.48" y="-85.79" font-family="Bitstream-Vera Sans" font-size="7.00">+ id</text>
<text text-anchor="middle" x="151.16" y="-102.21" font-family="Bitstream-Vera Sans" font-size="7.00">+ roletype_id</text>
</g>
<!-- subjecttopics_users&#45;&gt;subjecttopics -->
<g id="edge36" class="edge">
<title>subjecttopics_users&#45;&gt;subjecttopics</title>
<path fill="none" stroke="black" d="M126.16,-135.09C137.73,-136.84 149.99,-138.7 161.98,-140.51"/>
<ellipse fill="none" stroke="black" cx="166.28" cy="-141.16" rx="4" ry="4"/>
<text text-anchor="middle" x="162.23" y="-144.16" font-family="Bitstream-Vera Sans" font-size="7.00">+ id</text>
<text text-anchor="middle" x="158.16" y="-129.49" font-family="Bitstream-Vera Sans" font-size="7.00">+ subjecttopic_id</text>
</g>
</g>
</svg>
